<svg width="96" height="96" viewBox="0 0 96 96" fill="none" xmlns="http://www.w3.org/2000/svg" role="img" aria-labelledby="title">
  <title id="title">SQ logo</title>
  <rect x="6" y="6" width="84" height="84" rx="18" fill="#0F1018" stroke="#00C2FF" stroke-width="3"/>
  <path d="M31 61c3.2 3.3 8 5.2 13.3 5.2 7.6 0 12.7-3.8 12.7-9.5 0-5-3.1-7.8-11.2-9.7-6-1.5-8.2-2.8-8.2-5.6 0-2.9 2.7-4.9 6.9-4.9 4 0 7.8 1.5 10.8 4.3l5.1-6.3c-4-3.7-9.4-5.8-15.9-5.8-8.9 0-15.1 5.3-15.1 13 0 7.2 4.7 10.4 13.8 12.5 5.4 1.2 7.5 2.5 7.5 5.1 0 2.8-2.6 4.7-6.7 4.7-4.7 0-8.9-1.9-12.4-5.4L31 61Z" fill="#F8FBFF"/>
  <path d="M62.4 65.9l-5.2-5.1 4.9-5 5.1 5.1c1.3-2.4 2-5.1 2-8.2 0-10.1-7.1-17.3-17.2-17.3-1.1 0-2.2.1-3.2.3l-2.2-7.1c1.8-.4 3.7-.6 5.7-.6 15 0 25.4 10.3 25.4 24.5 0 5.3-1.5 10.1-4.1 14l5.6 5.5-4.9 5-5.8-5.8c-4.3 3.4-9.9 5.4-16.2 5.4-2.2 0-4.2-.2-6.2-.7l2-7.2c1.3.3 2.7.4 4.2.4 3.8.1 7.2-1.1 10.1-3.2Z" fill="#00C2FF"/>
</svg>
