<svg width="24" height="24" viewBox="0 0 24 24" fill="none" xmlns="http://www.w3.org/2000/svg" role="img" aria-labelledby="title">
  <title id="title">GitHub</title>
  <path d="M12 2.4a9.7 9.7 0 0 0-3.1 18.9c.5.1.7-.2.7-.5v-1.8c-2.9.6-3.5-1.2-3.5-1.2-.5-1.1-1.1-1.4-1.1-1.4-.9-.6.1-.6.1-.6 1 0 1.6 1.1 1.6 1.1.9 1.6 2.4 1.1 2.9.8.1-.7.4-1.1.7-1.4-2.3-.3-4.8-1.2-4.8-5.1 0-1.1.4-2.1 1.1-2.8-.1-.3-.5-1.3.1-2.8 0 0 .9-.3 2.9 1.1a10 10 0 0 1 5.3 0c2-1.4 2.9-1.1 2.9-1.1.6 1.5.2 2.5.1 2.8.7.7 1.1 1.7 1.1 2.8 0 4-2.4 4.8-4.8 5.1.4.3.7 1 .7 2v2.5c0 .3.2.6.7.5A9.7 9.7 0 0 0 12 2.4Z" fill="currentColor"/>
</svg>
