<svg width="24" height="24" viewBox="0 0 24 24" fill="none" xmlns="http://www.w3.org/2000/svg" role="img" aria-labelledby="title">
  <title id="title">WhatsApp</title>
  <path d="M12 3.8a8.1 8.1 0 0 0-7 12.2l-.9 3.3 3.4-.9A8.1 8.1 0 1 0 12 3.8Z" stroke="currentColor" stroke-width="1.8" stroke-linejoin="round"/>
  <path d="M9.2 8.2c-.2-.4-.4-.4-.7-.4h-.6c-.2 0-.5.1-.8.4-.3.3-1 1-1 2.3s1 2.6 1.1 2.8c.1.2 2 3.1 4.8 4.2 2.4.9 2.9.7 3.4.7.5-.1 1.7-.7 1.9-1.4.2-.7.2-1.3.2-1.4-.1-.1-.2-.2-.5-.4l-1.8-.9c-.3-.1-.5-.2-.7.2l-.7.9c-.1.2-.3.2-.6.1-.3-.1-1.1-.4-2.1-1.3-.8-.7-1.3-1.6-1.5-1.8-.1-.3 0-.4.1-.6l.4-.5c.1-.2.2-.3.3-.5.1-.2.1-.4 0-.5l-.8-1.9Z" fill="currentColor"/>
</svg>
