<svg width="64" height="64" viewBox="0 0 64 64" xmlns="http://www.w3.org/2000/svg"><circle cx="32" cy="32" r="28" fill="#00C2FF"/><path d="M15 32c0 6.7 3.9 12.5 9.5 15.2L16.5 25c-1 2.1-1.5 4.4-1.5 7Zm28.5-.9c0-2.1-.8-3.6-1.4-4.8-.9-1.4-1.7-2.6-1.7-4 0-1.6 1.2-3 2.9-3h.2A16.9 16.9 0 0 0 17.6 22h6.1c.9 0 1 1.3.1 1.4 0 0-.9.1-1.9.2l6.2 18.5 3.7-11.2-2.7-7.3-1.7-.2c-.9-.1-.8-1.4.1-1.4h9.7c.9 0 1 1.3.1 1.4 0 0-.9.1-1.9.2l6.1 18.3 1.7-5.7c.7-2.4 1.3-4.1 1.3-5.1ZM32.3 33.5l-5.1 14.8a17.3 17.3 0 0 0 10.4-.3l-.2-.4-5.1-14.1Zm14.6-9.7c.1.8.2 1.6.2 2.5 0 1.7-.3 3.6-1.3 6l-5.2 15.1A17 17 0 0 0 46.9 23.8Z" fill="#fff"/></svg>
