<svg width="1200" height="800" viewBox="0 0 1200 800" xmlns="http://www.w3.org/2000/svg" role="img" aria-labelledby="t">
  <title id="t">Bio X Gen website preview</title>
  <rect width="1200" height="800" fill="#07111D"/>
  <rect x="86" y="76" width="1028" height="648" rx="28" fill="#F7FBFF"/>
  <rect x="86" y="76" width="1028" height="58" rx="28" fill="#0D3158"/>
  <circle cx="126" cy="106" r="9" fill="#4EC3FF"/><circle cx="156" cy="106" r="9" fill="#9FD9FF"/><circle cx="186" cy="106" r="9" fill="#D9F0FF"/>
  <rect x="148" y="190" width="388" height="42" rx="10" fill="#0D3158"/>
  <rect x="148" y="258" width="486" height="20" rx="8" fill="#7191AC"/>
  <rect x="148" y="294" width="406" height="20" rx="8" fill="#A8BCD0"/>
  <rect x="148" y="354" width="170" height="52" rx="14" fill="#00A7C7"/>
  <circle cx="844" cy="326" r="122" fill="#D9F0FF"/>
  <path d="M788 330c34-88 130-87 170-10-29 78-122 93-170 10Z" fill="#00A7C7" opacity=".9"/>
  <path d="M812 254c68 34 84 94 44 178" fill="none" stroke="#0D3158" stroke-width="18" stroke-linecap="round"/>
  <rect x="148" y="560" width="264" height="72" rx="16" fill="#EAF5FF"/>
  <rect x="444" y="560" width="264" height="72" rx="16" fill="#EAF5FF"/>
  <text x="148" y="500" font-family="Arial, sans-serif" font-size="48" font-weight="700" fill="#0D3158">Bio X Gen</text>
</svg>
